<svg width="23" height="23" viewBox="0 0 23 23" fill="none" xmlns="http://www.w3.org/2000/svg">
<path d="M11.8876 6.41545C9.28575 6.41545 7.18712 8.51408 7.18712 11.1159C7.18712 13.7177 9.28575 15.8163 11.8876 15.8163C14.4894 15.8163 16.588 13.7177 16.588 11.1159C16.588 8.51408 14.4894 6.41545 11.8876 6.41545ZM11.8876 14.1718C10.2062 14.1718 8.83166 12.8013 8.83166 11.1159C8.83166 9.43044 10.2021 8.05999 11.8876 8.05999C13.573 8.05999 14.9435 9.43044 14.9435 11.1159C14.9435 12.8013 13.5689 14.1718 11.8876 14.1718ZM17.8766 6.22318C17.8766 6.83272 17.3857 7.31954 16.7803 7.31954C16.1707 7.31954 15.6839 6.82863 15.6839 6.22318C15.6839 5.61773 16.1748 5.12682 16.7803 5.12682C17.3857 5.12682 17.8766 5.61773 17.8766 6.22318ZM20.9898 7.3359C20.9202 5.86727 20.5848 4.56637 19.5089 3.49455C18.4371 2.42274 17.1362 2.08729 15.6675 2.01365C14.1539 1.92774 9.61711 1.92774 8.10348 2.01365C6.63894 2.0832 5.33804 2.41865 4.26213 3.49046C3.18623 4.56228 2.85486 5.86318 2.78123 7.33181C2.69532 8.84544 2.69532 13.3822 2.78123 14.8959C2.85077 16.3645 3.18623 17.6654 4.26213 18.7372C5.33804 19.809 6.63485 20.1445 8.10348 20.2181C9.61711 20.304 14.1539 20.304 15.6675 20.2181C17.1362 20.1486 18.4371 19.8131 19.5089 18.7372C20.5807 17.6654 20.9162 16.3645 20.9898 14.8959C21.0757 13.3822 21.0757 8.84953 20.9898 7.3359ZM19.0343 16.52C18.7153 17.3218 18.0975 17.9395 17.2916 18.2627C16.0848 18.7413 13.2212 18.6309 11.8876 18.6309C10.5539 18.6309 7.68621 18.7372 6.48349 18.2627C5.68167 17.9436 5.06395 17.3259 4.74077 16.52C4.26213 15.3131 4.37259 12.4495 4.37259 11.1159C4.37259 9.78225 4.26622 6.91454 4.74077 5.71182C5.05986 4.91 5.67758 4.29228 6.48349 3.9691C7.6903 3.49046 10.5539 3.60092 11.8876 3.60092C13.2212 3.60092 16.0889 3.49455 17.2916 3.9691C18.0934 4.28819 18.7112 4.90591 19.0343 5.71182C19.513 6.91863 19.4025 9.78225 19.4025 11.1159C19.4025 12.4495 19.513 15.3172 19.0343 16.52Z" fill="url(#paint0_linear_1963_1037)"/>
<defs>
<linearGradient id="paint0_linear_1963_1037" x1="11.8855" y1="1.94922" x2="11.8855" y2="20.2826" gradientUnits="userSpaceOnUse">
<stop stop-color="#6D39B8"/>
<stop offset="1" stop-color="#311952"/>
</linearGradient>
</defs>
</svg>
