<svg width="20" height="18" viewBox="0 0 20 18" fill="none" xmlns="http://www.w3.org/2000/svg">
<path fill-rule="evenodd" clip-rule="evenodd" d="M13.7032 0.0590505C12.9332 -7.3798e-06 11.9835 -4.10237e-06 10.7752 6.99732e-08H9.08901C7.8807 -4.10235e-06 6.93094 -7.49901e-06 6.16092 0.0590505C5.37498 0.11933 4.72024 0.244083 4.11169 0.523058C3.10626 0.983974 2.25509 1.72509 1.66024 2.65756C1.50494 2.90101 1.37631 3.15771 1.26657 3.43458C0.893226 4.37653 0.720627 5.61979 0.469473 7.42889L0.448229 7.58188C0.234323 9.12196 0.0671045 10.3259 0.0163153 11.2957C-0.0352521 12.2803 0.0271298 13.1008 0.323331 13.8541C0.807453 15.0853 1.70134 16.112 2.85425 16.7609C3.55964 17.1579 4.36378 17.3325 5.34613 17.4169C6.31366 17.5 7.52916 17.5 9.08402 17.5H10.7801C12.335 17.5 13.5505 17.5 14.518 17.4169C15.5004 17.3325 16.3045 17.1579 17.0099 16.7609C18.1628 16.112 19.0567 15.0853 19.5408 13.8541C19.837 13.1008 19.8994 12.2803 19.8478 11.2957C19.7971 10.3259 19.6298 9.1219 19.4159 7.58176L19.3915 7.4062C19.1255 5.48923 18.9473 4.20549 18.5132 3.23414C18.4229 3.032 18.3208 2.84084 18.2039 2.65756C17.6091 1.72509 16.7579 0.983974 15.7525 0.523058C15.1439 0.244083 14.4892 0.11933 13.7032 0.0590505ZM4.73678 1.88661C5.12039 1.71075 5.579 1.60809 6.27563 1.55466C6.98161 1.50051 7.87399 1.5 9.11998 1.5H10.7442C11.9902 1.5 12.8825 1.50051 13.5885 1.55466C14.2852 1.60809 14.7438 1.71075 15.1274 1.88661C15.8496 2.21767 16.4641 2.74432 16.9017 3.40629L16.3515 3.95647C14.6698 5.63813 13.4608 6.84489 12.418 7.64053C11.3925 8.42297 10.6164 8.7368 9.81074 8.7368C9.00512 8.7368 8.22899 8.42297 7.20349 7.64053C6.16068 6.8449 4.95166 5.63813 3.27 3.95647L2.86909 3.55556C2.88723 3.52452 2.9058 3.49412 2.92483 3.46429C3.36451 2.77507 3.99363 2.22729 4.73678 1.88661ZM17.4813 4.94795C17.6257 5.61551 17.751 6.49811 17.9252 7.75263C18.1451 9.33593 18.3029 10.4762 18.3499 11.3741C18.3965 12.2646 18.3282 12.839 18.1449 13.3052C17.787 14.2152 17.1263 14.9741 16.2742 15.4537C15.8376 15.6994 15.2781 15.8461 14.3897 15.9224C13.4938 15.9994 12.3427 16 10.7442 16H9.11998C7.52149 16 6.37032 15.9994 5.4745 15.9224C4.58606 15.8461 4.02656 15.6994 3.58997 15.4537C2.73782 14.9741 2.07712 14.2152 1.71929 13.3052C1.53596 12.839 1.46763 12.2646 1.51426 11.3741C1.56129 10.4762 1.71901 9.33593 1.93891 7.75263C2.09594 6.622 2.21292 5.79274 2.34113 5.14892C3.92998 6.73769 5.18254 7.98534 6.29362 8.83307C7.45255 9.7173 8.54529 10.2368 9.81074 10.2368C11.0762 10.2368 12.1689 9.7173 13.3279 8.83307C14.4601 7.96918 15.7393 6.68999 17.3716 5.05771L17.4813 4.94795Z" fill="url(#paint0_linear_2204_1248)"/>
<defs>
<linearGradient id="paint0_linear_2204_1248" x1="9.93208" y1="0" x2="9.93208" y2="17.5" gradientUnits="userSpaceOnUse">
<stop stop-color="#6D39B8"/>
<stop offset="1" stop-color="#311952"/>
</linearGradient>
</defs>
</svg>
